<svg version="1.1" id="Layer_1" xmlns="http://www.w3.org/2000/svg" xmlns:xlink="http://www.w3.org/1999/xlink" x="0px" y="0px"
	 width="100%" viewBox="0 0 500 500" enable-background="new 0 0 500 500" xml:space="preserve">
<path fill="#000000" opacity="1.000000" stroke="none" 
	d="
M266.000000,501.000000 
	C177.333359,501.000000 89.166710,501.000000 1.000047,501.000000 
	C1.000031,334.333405 1.000031,167.666794 1.000016,1.000137 
	C167.666565,1.000091 334.333130,1.000091 500.999756,1.000046 
	C500.999847,167.666519 500.999847,334.333038 500.999939,500.999786 
	C422.833344,501.000000 344.666656,501.000000 266.000000,501.000000 
M194.058487,201.547668 
	C184.289551,212.530045 179.004196,225.344772 176.841431,239.914581 
	C174.147949,258.059479 177.234100,275.212860 186.559158,290.432800 
	C196.779419,307.113831 211.595169,318.882355 231.306122,323.664856 
	C246.597870,327.375122 261.610504,326.985199 276.466339,322.051483 
	C290.324127,317.449280 301.596252,308.849365 310.525757,297.557739 
	C316.769409,289.662445 321.627350,280.766327 323.660492,270.619568 
	C324.976379,264.052216 325.006012,257.420135 325.500977,250.835953 
	C326.184296,241.746552 324.168091,233.597015 321.553436,225.530411 
	C317.353546,212.573288 309.349915,201.740433 298.617889,193.438339 
	C291.964600,188.291489 284.739075,183.085175 276.913788,180.433990 
	C264.165436,176.114914 250.740082,175.812027 237.145706,177.764603 
	C219.844955,180.249557 206.113678,188.430099 194.058487,201.547668 
z"/>
<path fill="#FC340B" opacity="1.000000" stroke="none" 
	d="
M194.320557,201.295914 
	C206.113678,188.430099 219.844955,180.249557 237.145706,177.764603 
	C250.740082,175.812027 264.165436,176.114914 276.913788,180.433990 
	C284.739075,183.085175 291.964600,188.291489 298.617889,193.438339 
	C309.349915,201.740433 317.353546,212.573288 321.553436,225.530411 
	C324.168091,233.597015 326.184296,241.746552 325.500977,250.835953 
	C325.006012,257.420135 324.976379,264.052216 323.660492,270.619568 
	C321.627350,280.766327 316.769409,289.662445 310.525757,297.557739 
	C301.596252,308.849365 290.324127,317.449280 276.466339,322.051483 
	C261.610504,326.985199 246.597870,327.375122 231.306122,323.664856 
	C211.595169,318.882355 196.779419,307.113831 186.559158,290.432800 
	C177.234100,275.212860 174.147949,258.059479 176.841431,239.914581 
	C179.004196,225.344772 184.289551,212.530045 194.320557,201.295914 
z"/>
</svg>